<svg width="188" height="76" viewBox="0 0 188 76" fill="none" xmlns="http://www.w3.org/2000/svg">
<rect width="188" height="76" rx="10" fill="#10152B"/>
<path d="M42.9443 44.125C42.9443 43.6191 42.8691 43.168 42.7188 42.7715C42.5684 42.3613 42.2949 41.9854 41.8984 41.6436C41.502 41.3018 40.9414 40.96 40.2168 40.6182C39.4922 40.2627 38.542 39.9004 37.3662 39.5312C36.0264 39.0938 34.748 38.6016 33.5312 38.0547C32.3281 37.4941 31.2549 36.8447 30.3115 36.1064C29.3682 35.3682 28.623 34.5068 28.0762 33.5225C27.543 32.5381 27.2764 31.3896 27.2764 30.0771C27.2764 28.8057 27.5566 27.6572 28.1172 26.6318C28.6777 25.6064 29.4639 24.7314 30.4756 24.0068C31.4873 23.2686 32.6768 22.708 34.0439 22.3252C35.4111 21.9287 36.915 21.7305 38.5557 21.7305C40.7432 21.7305 42.6641 22.1201 44.3184 22.8994C45.9863 23.665 47.2852 24.7451 48.2148 26.1396C49.1445 27.5205 49.6094 29.127 49.6094 30.959H42.9648C42.9648 30.1523 42.7939 29.4414 42.4521 28.8262C42.124 28.1973 41.6182 27.7051 40.9346 27.3496C40.2646 26.9941 39.4238 26.8164 38.4121 26.8164C37.4277 26.8164 36.6006 26.9668 35.9307 27.2676C35.2744 27.5547 34.7754 27.9512 34.4336 28.457C34.1055 28.9629 33.9414 29.5166 33.9414 30.1182C33.9414 30.5967 34.0645 31.0342 34.3105 31.4307C34.5703 31.8135 34.9395 32.1758 35.418 32.5176C35.9102 32.8457 36.5117 33.1602 37.2227 33.4609C37.9336 33.7617 38.7471 34.0488 39.6631 34.3223C41.2627 34.8281 42.6777 35.3887 43.9082 36.0039C45.1523 36.6191 46.1982 37.3164 47.0459 38.0957C47.8936 38.875 48.5293 39.7568 48.9531 40.7412C49.3906 41.7256 49.6094 42.8398 49.6094 44.084C49.6094 45.4102 49.3496 46.5859 48.8301 47.6113C48.3242 48.6367 47.5859 49.5117 46.6152 50.2363C45.6582 50.9473 44.5098 51.4873 43.1699 51.8564C41.8301 52.2256 40.333 52.4102 38.6787 52.4102C37.1748 52.4102 35.6914 52.2188 34.2285 51.8359C32.7656 51.4395 31.4395 50.8379 30.25 50.0312C29.0742 49.2246 28.1309 48.1992 27.4199 46.9551C26.7227 45.6973 26.374 44.207 26.374 42.4844H33.0596C33.0596 43.3867 33.1895 44.1523 33.4492 44.7812C33.709 45.3965 34.0781 45.8955 34.5566 46.2783C35.0488 46.6611 35.6436 46.9346 36.3408 47.0986C37.0381 47.2627 37.8174 47.3447 38.6787 47.3447C39.6768 47.3447 40.4834 47.208 41.0986 46.9346C41.7275 46.6475 42.1924 46.2578 42.4932 45.7656C42.7939 45.2734 42.9443 44.7266 42.9443 44.125ZM56.7461 22.1406H62.2832L69.4609 43.4893L76.6182 22.1406H82.1553L71.6963 52H67.2051L56.7461 22.1406ZM53.5469 22.1406H59.1865L60.2324 44.2686V52H53.5469V22.1406ZM79.7148 22.1406H85.375V52H78.6689V44.2686L79.7148 22.1406ZM90.3379 22.1406H101.802C104.085 22.1406 106.061 22.4824 107.729 23.166C109.41 23.8496 110.702 24.8613 111.604 26.2012C112.507 27.541 112.958 29.1953 112.958 31.1641C112.958 32.8047 112.691 34.1992 112.158 35.3477C111.625 36.4961 110.873 37.4463 109.902 38.1982C108.945 38.9502 107.824 39.5586 106.539 40.0234L104.365 41.2129H94.6035L94.5625 36.0244H101.822C102.82 36.0244 103.647 35.8467 104.304 35.4912C104.96 35.1357 105.452 34.6367 105.78 33.9941C106.122 33.3379 106.293 32.5723 106.293 31.6973C106.293 30.7949 106.122 30.0156 105.78 29.3594C105.438 28.7031 104.933 28.2041 104.263 27.8623C103.606 27.5068 102.786 27.3291 101.802 27.3291H97.0234V52H90.3379V22.1406ZM106.867 52L100.161 38.7314L107.216 38.7109L114.024 51.6924V52H106.867Z" fill="white"/>
<path d="M132.974 44.125C132.974 43.6191 132.898 43.168 132.748 42.7715C132.598 42.3613 132.324 41.9854 131.928 41.6436C131.531 41.3018 130.971 40.96 130.246 40.6182C129.521 40.2627 128.571 39.9004 127.396 39.5312C126.056 39.0938 124.777 38.6016 123.561 38.0547C122.357 37.4941 121.284 36.8447 120.341 36.1064C119.397 35.3682 118.652 34.5068 118.105 33.5225C117.572 32.5381 117.306 31.3896 117.306 30.0771C117.306 28.8057 117.586 27.6572 118.146 26.6318C118.707 25.6064 119.493 24.7314 120.505 24.0068C121.517 23.2686 122.706 22.708 124.073 22.3252C125.44 21.9287 126.944 21.7305 128.585 21.7305C130.772 21.7305 132.693 22.1201 134.348 22.8994C136.016 23.665 137.314 24.7451 138.244 26.1396C139.174 27.5205 139.639 29.127 139.639 30.959H132.994C132.994 30.1523 132.823 29.4414 132.481 28.8262C132.153 28.1973 131.647 27.7051 130.964 27.3496C130.294 26.9941 129.453 26.8164 128.441 26.8164C127.457 26.8164 126.63 26.9668 125.96 27.2676C125.304 27.5547 124.805 27.9512 124.463 28.457C124.135 28.9629 123.971 29.5166 123.971 30.1182C123.971 30.5967 124.094 31.0342 124.34 31.4307C124.6 31.8135 124.969 32.1758 125.447 32.5176C125.939 32.8457 126.541 33.1602 127.252 33.4609C127.963 33.7617 128.776 34.0488 129.692 34.3223C131.292 34.8281 132.707 35.3887 133.938 36.0039C135.182 36.6191 136.228 37.3164 137.075 38.0957C137.923 38.875 138.559 39.7568 138.982 40.7412C139.42 41.7256 139.639 42.8398 139.639 44.084C139.639 45.4102 139.379 46.5859 138.859 47.6113C138.354 48.6367 137.615 49.5117 136.645 50.2363C135.688 50.9473 134.539 51.4873 133.199 51.8564C131.859 52.2256 130.362 52.4102 128.708 52.4102C127.204 52.4102 125.721 52.2188 124.258 51.8359C122.795 51.4395 121.469 50.8379 120.279 50.0312C119.104 49.2246 118.16 48.1992 117.449 46.9551C116.752 45.6973 116.403 44.207 116.403 42.4844H123.089C123.089 43.3867 123.219 44.1523 123.479 44.7812C123.738 45.3965 124.107 45.8955 124.586 46.2783C125.078 46.6611 125.673 46.9346 126.37 47.0986C127.067 47.2627 127.847 47.3447 128.708 47.3447C129.706 47.3447 130.513 47.208 131.128 46.9346C131.757 46.6475 132.222 46.2578 132.522 45.7656C132.823 45.2734 132.974 44.7266 132.974 44.125ZM163.059 46.832V52H147.985V46.832H163.059ZM150.262 22.1406V52H143.576V22.1406H150.262Z" fill="#01E9AF"/>
</svg>
