<svg width="54" height="80" viewBox="0 0 54 80" fill="none" xmlns="http://www.w3.org/2000/svg">
<path d="M40.3333 53.3334C47.6971 53.3334 53.6667 47.3639 53.6667 40.0001C53.6667 32.6363 47.6971 26.6667 40.3333 26.6667C32.9695 26.6667 27 32.6363 27 40.0001C27 47.3639 32.9695 53.3334 40.3333 53.3334Z" fill="#19BCFE"/>
<path fill-rule="evenodd" clip-rule="evenodd" d="M13.6668 79.9999C21.0306 79.9999 27.0002 74.0304 27.0002 66.6666C27.0002 64.6564 27.0002 60.212 27.0002 53.3333C21.0103 53.3333 16.5658 53.3333 13.6668 53.3333C6.30303 53.3333 0.333496 59.3028 0.333496 66.6666C0.333496 74.0304 6.30303 79.9999 13.6668 79.9999Z" fill="#09CF83"/>
<path fill-rule="evenodd" clip-rule="evenodd" d="M13.6668 53.3334C16.1214 53.3334 20.5659 53.3334 27.0002 53.3334V26.6667C20.5659 26.6667 16.1214 26.6667 13.6668 26.6667C6.30303 26.6667 0.333496 32.6363 0.333496 40.0001C0.333496 47.3639 6.30303 53.3334 13.6668 53.3334Z" fill="#A259FF"/>
<path fill-rule="evenodd" clip-rule="evenodd" d="M13.6668 26.6667C16.1214 26.6667 20.5659 26.6667 27.0002 26.6667V0C20.5659 0 16.1214 0 13.6668 0C6.30303 0 0.333496 5.96954 0.333496 13.3333C0.333496 20.6971 6.30303 26.6667 13.6668 26.6667Z" fill="#F24E1E"/>
<path fill-rule="evenodd" clip-rule="evenodd" d="M40.3333 26.6667H27V0H40.3333C47.6971 0 53.6667 5.96954 53.6667 13.3333C53.6667 20.6971 47.6971 26.6667 40.3333 26.6667Z" fill="#FF7262"/>
</svg>
