<svg width="439" height="410" viewBox="0 0 439 410" fill="none" xmlns="http://www.w3.org/2000/svg">
<path d="M370.079 205.353C402.824 209.032 428.208 235.048 428.208 266.627C428.208 300.717 398.615 328.365 362.103 328.365H76.897C40.3854 328.365 10.7924 300.717 10.7924 266.627C10.7924 235.048 36.1763 209.032 68.9213 205.353C67.4534 200.243 66.6654 194.881 66.6654 189.346C66.6654 155.247 96.2585 127.608 132.77 127.608C140.508 127.608 147.945 128.868 154.852 131.157C160.917 102.913 187.63 81.6356 219.651 81.6356C251.64 81.6356 278.33 102.864 284.439 131.066C291.259 128.839 298.588 127.609 306.229 127.609C342.741 127.609 372.334 155.247 372.334 189.347C372.334 194.88 371.547 200.243 370.079 205.353Z" fill="white" fill-opacity="0.15"/>
<path d="M339.432 135.947C337.781 135.05 336.087 134.218 334.351 133.455Z" fill="white" fill-opacity="0.15"/>
<path d="M339.422 146.029C337.578 146.029 335.711 145.588 334.003 144.66C332.626 143.912 331.195 143.211 329.752 142.577C324.359 140.206 322.045 134.201 324.584 129.164C327.123 124.127 333.552 121.965 338.946 124.336C340.952 125.218 342.942 126.194 344.859 127.236C350.011 130.036 351.756 136.206 348.759 141.018C346.756 144.234 343.138 146.029 339.422 146.029Z" fill="white" fill-opacity="0.15"/>
<path d="M362.103 338.445H76.897C34.4949 338.445 0 306.228 0 266.627C0 233.956 23.5465 205.869 56.3592 197.417C56.0351 194.74 55.8739 192.047 55.8739 189.347C55.8739 149.746 90.3705 117.53 132.771 117.53C137.696 117.53 142.577 117.967 147.375 118.834C158.251 90.9015 187.034 71.557 219.652 71.557C252.235 71.557 281.018 90.8839 291.917 118.785C296.623 117.951 301.408 117.531 306.23 117.531C312.191 117.531 317.022 122.043 317.022 127.61C317.022 133.177 312.191 137.69 306.23 137.69C300.011 137.69 293.879 138.662 288.002 140.581C285.057 141.543 281.813 141.267 279.101 139.826C276.39 138.385 274.48 135.92 273.861 133.064C268.671 109.104 245.873 91.7143 219.651 91.7143C193.391 91.7143 170.589 109.136 165.434 133.139C164.82 136.005 162.9 138.481 160.178 139.924C157.454 141.368 154.195 141.633 151.244 140.656C145.299 138.687 139.083 137.688 132.77 137.688C102.272 137.688 77.4578 160.862 77.4578 189.346C77.4578 193.874 78.0923 198.381 79.3458 202.742C80.1561 205.564 79.6159 208.577 77.8616 210.998C76.1082 213.419 73.3173 215.011 70.21 215.36C42.4895 218.476 21.5847 240.515 21.5847 266.628C21.5847 295.112 46.3977 318.287 76.897 318.287H362.102C392.601 318.287 417.414 295.113 417.414 266.628C417.414 240.515 396.51 218.476 368.789 215.361C365.682 215.012 362.89 213.421 361.138 210.999C359.385 208.579 358.844 205.565 359.653 202.743C360.905 198.383 361.541 193.876 361.541 189.348C361.541 179.361 358.488 169.674 352.713 161.334C349.477 156.659 350.91 150.419 355.914 147.396C360.92 144.372 367.601 145.712 370.838 150.385C378.878 161.994 383.127 175.466 383.127 189.347C383.127 192.047 382.965 194.74 382.642 197.417C415.453 205.869 439 233.955 439 266.627C439 306.228 404.503 338.445 362.103 338.445Z" fill="white" fill-opacity="0.15"/>
</svg>
