<svg width="516" height="562" viewBox="0 0 516 562" fill="none" xmlns="http://www.w3.org/2000/svg">
<path opacity="0.986" fill-rule="evenodd" clip-rule="evenodd" d="M298.649 0.83783C303.1 2.67945 307.785 4.12086 312.703 5.16215C314.556 6.50096 316.718 7.22161 319.189 7.32432C322.465 9.38183 326.068 10.8232 330 11.6486C350.26 21.1145 369.719 31.9253 388.379 44.0811C390.865 46.7665 393.748 48.9286 397.027 50.5676C413.894 64.5494 429.75 79.6845 444.595 95.973C447.075 99.894 449.957 103.498 453.243 106.784C456.436 112.135 460.039 117.181 464.054 121.919C466.549 126.562 469.431 130.886 472.703 134.892C474.324 138.863 476.487 142.466 479.189 145.703C479.362 147.49 480.082 148.931 481.351 150.027C481.524 151.814 482.244 153.255 483.514 154.351C483.687 156.138 484.407 157.579 485.676 158.676C485.849 160.463 486.569 161.904 487.838 163C488.011 164.787 488.731 166.228 490 167.324C490.173 169.111 490.893 170.552 492.162 171.649C492.482 173.706 493.203 175.508 494.324 177.054C494.324 177.414 494.324 177.775 494.324 178.135C494.853 179.751 495.573 181.193 496.487 182.459C496.807 184.517 497.528 186.319 498.649 187.865C498.649 188.225 498.649 188.586 498.649 188.946C499.177 190.562 499.897 192.004 500.811 193.27C500.811 193.991 500.811 194.711 500.811 195.432C501.34 197.049 502.06 198.491 502.973 199.757C503.076 202.228 503.797 204.39 505.135 206.243C505.135 206.964 505.135 207.684 505.135 208.405C505.702 210.358 506.423 212.159 507.297 213.811C508.677 216.877 509.397 220.12 509.46 223.541C509.53 226.706 510.251 229.589 511.622 232.189C511.622 232.91 511.622 233.63 511.622 234.351C511.948 237.457 512.669 240.339 513.784 243C516.179 269.956 516.539 296.983 514.865 324.081C513.148 336.917 510.626 349.53 507.297 361.919C506.176 363.465 505.455 365.267 505.135 367.324C505.135 367.684 505.135 368.045 505.135 368.405C504.014 369.951 503.293 371.753 502.973 373.811C502.973 374.171 502.973 374.532 502.973 374.892C501.852 376.438 501.131 378.24 500.811 380.297C500.688 382.695 499.968 384.857 498.649 386.784C497.38 387.88 496.66 389.321 496.487 391.108C496.487 391.468 496.487 391.829 496.487 392.189C495.513 393.043 494.791 394.124 494.324 395.432C494.324 395.792 494.324 396.153 494.324 396.513C493.35 397.368 492.629 398.449 492.162 399.757C492.162 400.117 492.162 400.478 492.162 400.838C491.188 401.692 490.467 402.773 490 404.081C490 404.441 490 404.802 490 405.162C489.026 406.016 488.305 407.097 487.838 408.405C487.838 408.765 487.838 409.126 487.838 409.486C486.318 409.998 485.597 411.079 485.676 412.73C484.407 413.826 483.687 415.267 483.514 417.054C482.433 417.414 481.711 418.135 481.351 419.216C481.351 419.576 481.351 419.937 481.351 420.297C480.377 421.151 479.656 422.232 479.189 423.541C478.884 424.922 478.163 426.003 477.027 426.784C476.053 427.638 475.332 428.719 474.865 430.027C473.784 430.387 473.063 431.108 472.703 432.189C472.703 432.549 472.703 432.91 472.703 433.27C470.494 434.437 469.053 436.239 468.379 438.676C467.297 439.036 466.576 439.757 466.216 440.838C466.216 441.198 466.216 441.559 466.216 441.919C463.277 443.777 461.115 446.301 459.73 449.486C458.649 449.846 457.928 450.568 457.568 451.649C456.487 452.009 455.766 452.73 455.406 453.811C454.324 454.171 453.603 454.892 453.243 455.973C452.162 456.333 451.441 457.054 451.081 458.135C450 458.495 449.279 459.216 448.919 460.297C447.838 460.657 447.117 461.378 446.757 462.459C445.676 462.819 444.955 463.54 444.595 464.622C443.514 464.982 442.793 465.703 442.433 466.784C441.351 467.144 440.63 467.865 440.27 468.946C439.189 469.306 438.468 470.027 438.108 471.108C434.914 472.862 432.03 475.024 429.46 477.595C428.379 477.955 427.657 478.676 427.297 479.757C424.836 480.783 422.674 482.224 420.811 484.081C418.374 484.756 416.572 486.197 415.406 488.405C415.046 488.405 414.684 488.405 414.324 488.405C411.843 489.459 409.681 490.901 407.838 492.73C406.53 493.197 405.449 493.918 404.595 494.892C404.235 494.892 403.874 494.892 403.514 494.892C402.206 495.359 401.124 496.08 400.27 497.054C394.587 500.796 388.461 503.679 381.892 505.703C380.584 506.17 379.503 506.891 378.649 507.865C378.289 507.865 377.928 507.865 377.568 507.865C375.781 508.038 374.34 508.758 373.243 510.027C372.522 510.027 371.802 510.027 371.081 510.027C369.465 510.556 368.023 511.276 366.757 512.189C351.406 517.828 335.55 521.431 319.189 523C314.314 523.415 309.629 524.136 305.135 525.162C292.162 525.162 279.189 525.162 266.216 525.162C262.091 524.101 257.767 523.379 253.243 523C247.644 523.326 242.239 522.605 237.027 520.838C234.029 519.587 230.786 518.866 227.297 518.676C226.576 518.676 225.856 518.676 225.135 518.676C223.187 517.64 221.025 516.919 218.649 516.513C217.928 516.513 217.208 516.513 216.487 516.513C213.959 514.849 211.076 514.129 207.838 514.351C207.117 517.235 206.397 520.117 205.676 523C204.194 525.633 203.113 528.517 202.433 531.649C202.073 531.649 201.711 531.649 201.351 531.649C195.547 525.013 193.206 526.094 194.324 534.892C195.143 536.854 196.043 538.655 197.027 540.297C197.027 542.099 197.027 543.901 197.027 545.703C195.586 547.865 193.784 549.667 191.622 551.108C188.378 551.108 185.135 551.108 181.892 551.108C178.374 551.426 175.491 552.867 173.243 555.432C171.456 555.605 170.015 556.325 168.919 557.595C167.611 558.062 166.53 558.783 165.676 559.757C165.316 559.757 164.955 559.757 164.595 559.757C162.537 560.077 160.735 560.798 159.189 561.919C152.242 561.958 145.396 561.237 138.649 559.757C138.649 558.676 138.649 557.595 138.649 556.513C154.631 548.464 167.604 536.932 177.568 521.919C176.522 520.315 175.081 519.233 173.243 518.676C172.883 518.676 172.522 518.676 172.162 518.676C170.191 517.602 168.75 515.981 167.838 513.811C170.584 509.949 173.467 506.165 176.487 502.459C175.081 500.783 173.279 499.702 171.081 499.216C169.815 498.303 168.373 497.583 166.757 497.054C166.397 497.054 166.036 497.054 165.676 497.054C164.822 496.08 163.741 495.359 162.433 494.892C162.073 494.892 161.711 494.892 161.351 494.892C160.84 493.372 159.759 492.651 158.108 492.73C157.012 491.461 155.571 490.741 153.784 490.568C152.688 489.298 151.247 488.578 149.46 488.405C147.71 486.442 145.548 485.001 142.973 484.081C141.877 482.812 140.436 482.092 138.649 481.919C136.868 479.945 134.706 478.503 132.162 477.595C130.382 475.621 128.22 474.178 125.676 473.27C112.393 462.873 99.4196 452.063 86.7569 440.838C86.3969 439.757 85.6758 439.036 84.5947 438.676C82.4833 434.762 79.6012 431.519 75.946 428.946C75.946 428.586 75.946 428.225 75.946 427.865C105.957 440.864 137.308 447.53 170 447.865C171.136 446.368 172.577 445.286 174.324 444.622C187.44 441.938 198.791 435.992 208.378 426.784C209.385 424.666 210.286 422.504 211.081 420.297C210.189 419.339 209.108 418.979 207.838 419.216C205.756 418.15 203.594 417.069 201.351 415.973C201.351 415.613 201.351 415.252 201.351 414.892C207.275 408.086 210.878 400.158 212.162 391.108C213.747 386.596 215.189 381.91 216.487 377.054C215.201 376.05 213.76 375.69 212.162 375.973C209.658 371.552 206.236 367.949 201.892 365.162C201.037 363.816 200.496 362.375 200.27 360.838C201.124 359.439 202.206 358.177 203.514 357.054C201.058 354.046 198.176 351.704 194.865 350.027C191.705 347.957 188.822 345.434 186.216 342.459C183.421 341.4 180.537 341.04 177.568 341.378C177.891 339.104 177.531 336.942 176.487 334.892C171.841 331.697 168.958 327.373 167.838 321.919C150.582 302.859 132.563 284.481 113.784 266.784C112.78 265.498 112.42 264.057 112.703 262.459C107.344 255.835 101.758 249.348 95.946 243C91.5774 239.165 87.0725 235.562 82.4325 232.189C81.732 230.475 81.1914 228.672 80.8109 226.784C75.0736 220.619 69.1277 214.854 62.9731 209.486C54.3752 198.545 45.186 188.094 35.4055 178.135C33.5307 176.026 31.1883 174.945 28.3785 174.892C22.7375 169.046 17.3321 162.921 12.1623 156.514C8.75825 289.616 6.05555 422.589 4.05415 555.432C2.97306 556.873 1.89198 556.873 0.810903 555.432C2.49512 438.318 4.47717 321.201 6.75685 204.081C6.39652 186.063 6.03609 168.045 5.67577 150.027C1.26798 146.83 -0.533854 142.506 0.270362 137.054C6.18874 136.841 11.9545 137.561 17.5677 139.216C17.2288 142.186 17.5893 145.069 18.6487 147.865C38.1082 168.045 57.5677 188.225 77.0271 208.405C78.0314 209.691 78.3914 211.132 78.1082 212.73C85.7612 222.545 94.4098 231.193 104.054 238.676C113.284 248.992 123.014 259.082 133.243 268.946C146.147 284.014 159.841 298.429 174.324 312.189C175.881 313.759 177.682 314.84 179.73 315.432C179.73 316.513 179.73 317.595 179.73 318.676C185.13 317.96 189.814 319.402 193.784 323C195.182 324.942 196.803 326.744 198.649 328.405C198.856 330.651 199.397 332.813 200.27 334.892C210.05 338.931 220.14 340.012 230.541 338.135C231.221 335.712 232.302 333.55 233.784 331.649C241.548 334.636 249.476 337.519 257.568 340.297C264.966 338.313 272.173 335.791 279.189 332.73C281.772 328.983 284.835 325.739 288.379 323C288.887 321.836 288.706 320.755 287.838 319.757C285.53 317.736 282.647 317.015 279.189 317.595C274.966 313.781 271.362 309.456 268.379 304.622C268.379 303.541 268.379 302.459 268.379 301.378C270.109 300.277 271.19 298.655 271.622 296.513C270.369 292.776 269.288 288.992 268.379 285.162C267.64 285.555 266.919 285.915 266.216 286.243C265.549 286.123 265.009 285.763 264.595 285.162C264.06 283.029 263.879 280.867 264.054 278.676C264.64 275.321 266.082 272.258 268.379 269.486C271.22 267.729 273.742 265.566 275.946 263C278.528 260.988 281.41 259.547 284.595 258.676C283.154 258.316 281.711 257.955 280.27 257.595C283.826 256.641 287.43 255.921 291.081 255.432C289.515 254.225 287.713 253.504 285.676 253.27C288.953 252.735 292.196 252.915 295.406 253.811C301.729 254.907 308.215 255.448 314.865 255.432C312.869 254.319 311.067 253.058 309.46 251.649C309.46 251.289 309.46 250.928 309.46 250.568C313.463 250.959 316.706 252.761 319.189 255.973C319.928 255.581 320.649 255.221 321.351 254.892C322.073 255.613 322.793 256.333 323.514 257.054C322.156 257.012 321.075 257.552 320.27 258.676C323.41 258.819 325.933 260.081 327.838 262.459C327.838 262.819 327.838 263.181 327.838 263.541C326.382 262.97 324.94 262.789 323.514 263C325.11 264.959 326.551 266.941 327.838 268.946C328.243 271.322 328.964 273.484 330 275.432C330 281.198 330 286.964 330 292.73C328.879 294.276 328.158 296.078 327.838 298.135C326.757 298.495 326.036 299.216 325.676 300.297C324.595 300.657 323.874 301.378 323.514 302.459C321.727 302.632 320.286 303.352 319.189 304.622C317.196 305.383 316.655 306.824 317.568 308.946C322.018 311.874 326.703 314.396 331.622 316.513C335.277 321.67 338.34 327.076 340.811 332.73C342.145 344.576 342.865 356.468 342.973 368.405C342.503 371.752 341.962 374.996 341.351 378.135C370.475 346.553 388.673 309.437 395.946 266.784C395.946 266.424 395.946 266.063 395.946 265.703C397.626 261.306 398.346 256.622 398.108 251.649C398.108 250.928 398.108 250.208 398.108 249.486C405.28 150.683 371.767 68.5205 297.568 2.99999C297.382 1.92799 297.743 1.20723 298.649 0.83783ZM212.162 350.027C212.883 350.027 213.603 350.027 214.324 350.027C215.063 351.839 216.505 352.56 218.649 352.189C219.086 353.547 219.807 354.809 220.811 355.973C220.451 356.513 220.09 357.054 219.73 357.595C215.716 355.93 212.111 353.587 208.919 350.568C209.944 350.045 211.025 349.866 212.162 350.027ZM275.946 367.324C277.027 367.324 278.108 367.324 279.189 367.324C282.343 367.178 285.226 367.899 287.838 369.486C287.838 373.451 287.838 377.414 287.838 381.378C284.784 381.831 282.442 380.75 280.811 378.135C279.079 374.55 277.457 370.947 275.946 367.324ZM253.243 417.054C253.243 418.856 253.243 420.657 253.243 422.459C245.081 424.741 237.154 427.624 229.46 431.108C229.46 427.865 229.46 424.622 229.46 421.378C233.424 421.378 237.387 421.378 241.351 421.378C243.25 410.84 244.51 400.029 245.135 388.946C245.823 395.466 246.724 401.952 247.838 408.405C249.153 411.792 250.955 414.676 253.243 417.054ZM197.027 531.649C195.041 531.498 194.681 530.777 195.946 529.486C196.809 529.981 197.169 530.702 197.027 531.649Z" fill="url(#paint0_linear_6522_756)"/>
<defs>
<linearGradient id="paint0_linear_6522_756" x1="257.991" y1="132.254" x2="257.991" y2="561.92" gradientUnits="userSpaceOnUse">
<stop stop-color="#04112F"/>
<stop offset="1" stop-color="#051A5E"/>
</linearGradient>
</defs>
</svg>
